<svg width="32" height="32" viewBox="0 0 32 32" fill="none" xmlns="http://www.w3.org/2000/svg">
<path fill-rule="evenodd" clip-rule="evenodd" d="M16 4.66666C9.75063 4.66666 4.66663 9.75066 4.66663 16C4.66663 22.2493 9.75063 27.3333 16 27.3333C22.2493 27.3333 27.3333 22.2493 27.3333 16C27.3333 9.75066 22.2493 4.66666 16 4.66666ZM16 29.3333C8.64796 29.3333 2.66663 23.352 2.66663 16C2.66663 8.64799 8.64796 2.66666 16 2.66666C23.352 2.66666 29.3333 8.64799 29.3333 16C29.3333 23.352 23.352 29.3333 16 29.3333Z" fill="#0066D9"/>
<path fill-rule="evenodd" clip-rule="evenodd" d="M20.5749 20.9232C20.4002 20.9232 20.2242 20.8778 20.0629 20.7832L15.0362 17.7845C14.7349 17.6032 14.5482 17.2765 14.5482 16.9245V10.4605C14.5482 9.90851 14.9962 9.46051 15.5482 9.46051C16.1016 9.46051 16.5482 9.90851 16.5482 10.4605V16.3565L21.0882 19.0632C21.5616 19.3472 21.7176 19.9605 21.4349 20.4352C21.2469 20.7485 20.9149 20.9232 20.5749 20.9232Z" fill="#0066D9"/>
</svg>
