<svg width="48" height="48" viewBox="0 0 48 48" fill="none" xmlns="http://www.w3.org/2000/svg">
  <path d="M36.0001 11.9999C35.6251 11.625 35.1165 11.4144 34.5861 11.4144C34.0558 11.4144 33.5472 11.625 33.1721 11.9999L24.0001 21.1719L14.8281 11.9999C14.4531 11.625 13.9445 11.4144 13.4141 11.4144C12.8838 11.4144 12.3752 11.625 12.0001 11.9999C11.6252 12.375 11.4146 12.8836 11.4146 13.4139C11.4146 13.9443 11.6252 14.4529 12.0001 14.8279L21.1721 23.9999L12.0001 33.1719C11.6252 33.547 11.4146 34.0556 11.4146 34.5859C11.4146 35.1163 11.6252 35.6249 12.0001 35.9999C12.3752 36.3749 12.8838 36.5855 13.4141 36.5855C13.9445 36.5855 14.4531 36.3749 14.8281 35.9999L24.0001 26.8279L33.1721 35.9999C33.5472 36.3749 34.0558 36.5855 34.5861 36.5855C35.1165 36.5855 35.6251 36.3749 36.0001 35.9999C36.3751 35.6249 36.5857 35.1163 36.5857 34.5859C36.5857 34.0556 36.3751 33.547 36.0001 33.1719L26.8281 23.9999L36.0001 14.8279C36.3751 14.4529 36.5857 13.9443 36.5857 13.4139C36.5857 12.8836 36.3751 12.375 36.0001 11.9999Z" fill="#E42E3C"/>
</svg>