<svg width="18" height="18" viewBox="0 0 18 18" fill="none" xmlns="http://www.w3.org/2000/svg">
<path fill-rule="evenodd" clip-rule="evenodd" d="M5.74875 2.625C3.85125 2.625 2.625 3.92475 2.625 5.937V12.063C2.625 14.0752 3.85125 15.375 5.74875 15.375H12.2498C14.148 15.375 15.375 14.0752 15.375 12.063V5.937C15.375 3.92475 14.148 2.625 12.2505 2.625H5.74875ZM12.2498 16.5H5.74875C3.207 16.5 1.5 14.7165 1.5 12.063V5.937C1.5 3.2835 3.207 1.5 5.74875 1.5H12.2505C14.7922 1.5 16.5 3.2835 16.5 5.937V12.063C16.5 14.7165 14.7923 16.5 12.2498 16.5Z" fill="#4CAF50"/>
<path fill-rule="evenodd" clip-rule="evenodd" d="M8.11015 11.3423C7.9669 11.3423 7.82215 11.2875 7.71265 11.1773L5.93215 9.39752C5.7124 9.17777 5.7124 8.82227 5.93215 8.60252C6.1519 8.38277 6.5074 8.38277 6.72715 8.60252L8.11015 9.98402L11.2721 6.82277C11.4919 6.60302 11.8474 6.60302 12.0671 6.82277C12.2869 7.04252 12.2869 7.39802 12.0671 7.61777L8.50765 11.1773C8.39815 11.2875 8.25415 11.3423 8.11015 11.3423Z" fill="#4CAF50"/>
</svg>
