<svg width="32" height="32" viewBox="0 0 32 32" fill="none" xmlns="http://www.w3.org/2000/svg">
<path fill-rule="evenodd" clip-rule="evenodd" d="M15.7026 17.9531C14.8106 17.9531 13.9212 17.6584 13.1772 17.0691L7.19722 12.2477C6.76656 11.9011 6.69989 11.2704 7.04522 10.8411C7.39322 10.4131 8.02256 10.3451 8.45189 10.6904L14.4266 15.5064C15.1772 16.1011 16.2346 16.1011 16.9906 15.5011L22.9052 10.6931C23.3346 10.3424 23.9639 10.4091 24.3132 10.8384C24.6612 11.2664 24.5959 11.8957 24.1679 12.2451L18.2426 17.0611C17.4932 17.6557 16.5972 17.9531 15.7026 17.9531Z" fill="#0066D9"/>
<mask id="mask0_2017_181" style="mask-type:luminance" maskUnits="userSpaceOnUse" x="1" y="2" width="29" height="27">
<path fill-rule="evenodd" clip-rule="evenodd" d="M1.33325 2.66669H29.9998V28.6667H1.33325V2.66669Z" fill="white"/>
</mask>
<g mask="url(#mask0_2017_181)">
<path fill-rule="evenodd" clip-rule="evenodd" d="M9.11859 26.6667H22.2119C22.2146 26.664 22.2253 26.6667 22.2333 26.6667C23.7546 26.6667 25.1039 26.1227 26.1386 25.0893C27.3399 23.8933 27.9999 22.1747 27.9999 20.2507V11.0933C27.9999 7.36932 25.5653 4.66666 22.2119 4.66666H9.12125C5.76792 4.66666 3.33325 7.36932 3.33325 11.0933V20.2507C3.33325 22.1747 3.99459 23.8933 5.19459 25.0893C6.22925 26.1227 7.57992 26.6667 9.09992 26.6667H9.11859ZM9.09592 28.6667C7.03859 28.6667 5.20125 27.92 3.78259 26.5067C2.20259 24.9307 1.33325 22.7093 1.33325 20.2507V11.0933C1.33325 6.28932 4.68125 2.66666 9.12125 2.66666H22.2119C26.6519 2.66666 29.9999 6.28932 29.9999 11.0933V20.2507C29.9999 22.7093 29.1306 24.9307 27.5506 26.5067C26.1333 27.9187 24.2946 28.6667 22.2333 28.6667H22.2119H9.12125H9.09592Z" fill="#0066D9"/>
</g>
</svg>
