<svg width="48" height="30" viewBox="0 0 48 30" fill="none" xmlns="http://www.w3.org/2000/svg">
<g clip-path="url(#clip0_2006_764)">
<path d="M44.723 -0.388672H3.27799C1.67579 -0.388672 0.376953 0.910167 0.376953 2.51237V26.9165C0.376953 28.5187 1.67579 29.8176 3.27799 29.8176H44.723C46.3252 29.8176 47.624 28.5187 47.624 26.9165V2.51237C47.624 0.910167 46.3252 -0.388672 44.723 -0.388672Z" fill="url(#paint0_linear_2006_764)"/>
<path fill-rule="evenodd" clip-rule="evenodd" d="M12.978 14.4262L13.1884 13.5957C13.9967 13.3521 15.6465 13.2414 15.9566 14.1161C16.1337 14.6255 15.6244 16.7403 15.5247 17.3604L14.7386 17.3715C14.5614 17.15 14.7053 17.5597 14.5835 17.0172C13.8306 17.6926 12.2251 17.5819 12.3469 16.2199C12.4687 14.8691 13.6424 15.0462 14.9157 14.8469C14.8936 13.9832 13.8085 14.2158 12.9669 14.4151L12.978 14.4262ZM18.9019 14.2933C18.1822 14.2933 18.0714 14.1383 17.4403 14.4151C17.5178 15.2012 17.9275 14.8912 18.4922 15.2677C19.5662 15.9763 18.4147 18.1687 15.8569 17.2275L16.0008 16.4303C16.7206 16.5743 17.086 16.7182 17.6396 16.4082C17.7725 15.2898 15.7905 16.0206 16.3441 14.2268C16.6431 13.2525 17.9607 13.3853 19.0458 13.485L18.8908 14.2933H18.9019ZM7.87351 12.5992L9.56762 12.6545L9.74479 15.312L10.6638 13.186C10.9739 12.422 10.7635 12.5881 12.7123 12.6102L11.8375 17.3604L10.8853 17.3493L11.4057 13.939L9.99946 17.3715L8.85897 17.3383C8.82576 16.6739 8.77039 14.3376 8.59323 13.8947L8.01745 17.3493L7.02091 17.3383L7.87351 12.5992ZM24.0285 22.6864L24.4936 22.1327C23.5635 22.0109 23.3974 22.2767 22.9766 21.5237L25.1136 21.5016C25.2465 21.2801 25.468 21.0698 25.5787 20.8151C23.1427 20.649 22.4562 21.2691 22.0687 20.2061H25.9773L26.4091 19.5307L21.5815 19.5085L21.36 18.9438L26.5642 18.9217C26.8631 18.7556 26.8631 18.5673 26.9406 18.2241L22.0133 18.213C21.1275 18.2241 21.0721 18.4234 20.906 17.6151H27.1067L27.306 16.9286L25.4901 16.9064L25.4015 17.3715L24.3607 17.3272L25.014 13.4628L25.9995 13.5957C25.9995 13.6179 26.0216 13.6954 26.0216 13.7286C26.0216 13.7507 26.0327 13.7839 26.0327 13.795L26.088 13.9943C26.3649 13.6621 26.542 13.4185 27.1842 13.4407L26.8521 14.3376C26.6638 14.5812 26.1102 14.3044 25.8777 14.9687L26.9628 15.013C27.0846 14.3154 27.2175 14.105 27.4168 13.5403L27.4278 13.2082L20.6403 13.2192L20.6181 13.4628C20.9835 13.4628 20.9725 13.3964 21.1828 13.5736L21.0832 14.2268C20.3967 14.3929 20.4188 13.9832 20.3524 14.8801C20.4521 15.0462 20.3303 14.9576 20.5406 15.013L20.9725 15.0241C21.67 12.7542 23.7517 13.2525 24.2278 13.9611C24.4825 14.3376 24.7372 15.5777 24.106 15.6774L21.9912 15.6995C22.0908 16.8179 23.3752 16.5853 24.2057 16.3085C24.1725 16.7736 24.2057 17.15 23.7739 17.305C23.4306 17.4268 22.7109 17.3936 22.3344 17.305C21.4043 17.0947 21.0057 16.6296 20.9393 15.622L20.5406 15.6109C20.1752 15.4448 20.4631 15.6109 20.2749 15.157C20.1199 16.0871 19.6991 16.685 20.8507 16.5521C20.7842 17.1057 20.8617 17.294 20.2527 17.3604C18.4811 17.5708 19.0569 16.386 19.3448 14.8026C19.7988 12.2781 19.4444 12.5881 20.7289 12.6102L27.3282 12.6213L27.1953 11.9348L20.8175 11.9127L20.9393 11.359L26.9739 11.3258C26.8188 10.3846 26.7856 10.6172 24.5932 10.6172C23.4749 10.6172 22.3676 10.6172 21.2493 10.6172C21.4818 9.80886 21.36 10.0303 23.5303 10.0303H26.4645L26.1545 9.33273L21.9026 9.32166L22.1905 8.74588L25.7448 8.72373C25.2908 7.79363 25.313 8.05937 22.7995 8.01508C23.1206 7.21785 23.6853 7.41716 24.6707 7.41716C24.3939 6.97425 24.1946 7.00747 24.0285 6.631C23.6188 6.42062 23.2534 6.04415 22.8437 5.75626C19.7102 3.54173 15.4583 3.3092 12.0479 4.9701C8.98077 6.45384 5.96901 9.88636 6.00223 14.6365C6.04652 21.4241 12.0036 26.3736 18.7469 25.222C21.9136 24.6794 22.7109 23.395 24.0175 22.6753L24.0285 22.6864Z" fill="#E41D2C"/>
<path fill-rule="evenodd" clip-rule="evenodd" d="M31.2688 13.5628C31.2676 13.5628 31.2678 13.561 31.2689 13.5607C34.6904 12.8685 34.1265 14.5606 33.85 15.9323C33.7977 16.1739 33.7763 16.5542 33.7016 16.871C33.6154 17.2366 33.2005 17.5287 32.8645 17.3607C32.6283 17.2679 32.3974 17.1815 32.1576 17.2644C31.2817 17.5674 30.2807 17.4472 30.4285 16.2091C30.5349 15.3338 31.2154 15.0024 32.0548 14.9114C32.5517 14.8575 32.9458 14.3133 32.4516 14.2381C32.2105 14.2014 31.8983 14.2428 31.5361 14.32C31.311 14.368 31.11 14.1649 31.1691 13.9425L31.2697 13.564C31.2699 13.5634 31.2694 13.5628 31.2688 13.5628ZM34.5573 13.9919C34.6091 13.6874 34.8747 13.4658 35.1836 13.4696L35.5028 13.4734C35.5418 13.4739 35.5805 13.4974 35.5869 13.5358C35.5888 13.5474 35.5904 13.5573 35.5943 13.5684L35.5996 13.5835C35.6538 13.7379 35.8759 13.7697 36.0111 13.6774C36.0898 13.6236 36.18 13.5777 36.2826 13.5432C36.4892 13.4736 36.6619 13.6736 36.6256 13.8886L36.6052 14.0097C36.5789 14.1652 36.4729 14.2954 36.326 14.3528L36.1088 14.4375C35.2892 14.7074 35.2546 15.663 35.0764 16.9461C35.0422 17.1918 34.8304 17.3718 34.5823 17.3718C34.2689 17.3718 34.0308 17.0898 34.0833 16.7808L34.5573 13.9919ZM39.5348 12.617C39.5331 12.6187 39.5343 12.6216 39.5367 12.6216H40.1617C40.3237 12.6216 40.4467 12.7673 40.4196 12.9269L39.7456 16.8973C39.6978 17.1784 39.2047 17.4119 38.9207 17.3868C38.5295 17.3523 38.2757 17.3986 37.8867 17.4529C37.038 17.5713 35.9338 16.6412 36.4188 15.0243C36.8153 13.6839 38.0166 13.1804 38.8425 13.6374C39.0251 13.7384 39.2984 13.6688 39.3451 13.4655L39.5393 12.6195C39.5399 12.6169 39.5367 12.6152 39.5348 12.617ZM24.0493 6.652C24.0473 6.65 24.0441 6.65244 24.0453 6.65502C24.1786 6.94807 24.3402 6.9867 24.5357 7.2209C24.6074 7.30672 24.5394 7.42775 24.4277 7.42434C24.0552 7.41299 23.7502 7.38485 23.5008 7.42375C23.0385 7.49587 23.3114 8.03432 23.7793 8.03052C24.0085 8.02866 24.2048 8.02546 24.374 8.02392C25.1701 8.01669 24.8335 8.74082 24.0373 8.74578L22.3789 8.75612C22.2701 8.75679 22.1709 8.81855 22.1222 8.91589C22.0263 9.10779 22.1654 9.33366 22.38 9.33421L25.9393 9.34348C26.077 9.34384 26.2015 9.42503 26.2574 9.55079C26.36 9.78163 26.191 10.0417 25.9384 10.0417C25.1428 10.0417 24.3457 10.0417 23.5413 10.0417C22.2193 10.0417 22.5824 10.6285 23.9044 10.6285H24.6043C26.1021 10.6285 25.629 11.3446 24.1313 11.3529L21.1726 11.3691C21.0426 11.3699 20.9305 11.4605 20.9026 11.5874C20.8645 11.7605 20.9959 11.9246 21.1731 11.9252L26.9241 11.9452C27.0881 11.9457 27.2289 12.0623 27.26 12.2233C27.3011 12.4354 27.1384 12.6323 26.9223 12.632L21.0088 12.622C20.8546 12.6218 20.7237 12.7351 20.7019 12.8878C20.6753 13.0744 20.8203 13.2414 21.0088 13.2411L27.3402 13.2307C27.3942 13.2307 27.4374 13.2753 27.4356 13.3292C27.4328 13.4145 27.5334 13.4583 27.5903 13.3947C27.931 13.0132 27.9646 12.7872 28.8008 12.5441C29.4212 12.3693 29.8623 12.4359 30.4015 12.5533C30.6587 12.6093 30.8271 12.8588 30.7848 13.1185C30.7368 13.4126 30.4414 13.5931 30.1492 13.5345C29.1282 13.33 28.4572 13.5723 28.1919 14.7475C28.1027 15.1301 28.1151 15.4506 28.204 15.7053C28.5469 16.6882 29.7222 17.4965 28.6901 17.3607C28.0935 17.2852 27.7802 17.0654 27.5183 16.7682C27.2764 16.4937 26.9465 16.3088 26.5806 16.3088H25.844C25.6917 16.3088 25.5624 16.4206 25.5405 16.5713C25.5138 16.7548 25.6548 16.9198 25.8402 16.922L26.8511 16.9344C27.0798 16.9372 27.243 17.1572 27.1792 17.3769C27.1363 17.5247 27.0008 17.6264 26.8469 17.6264H22.4297C21.643 17.6264 21.2267 18.2342 22.0133 18.2243L26.2511 18.2339C26.5995 18.2347 26.9522 18.6196 26.6888 18.8476C26.6211 18.9061 26.5173 18.9332 26.4278 18.9336L21.7741 18.9534C21.5747 18.9542 21.4384 19.155 21.5112 19.3406C21.5536 19.4488 21.6578 19.5202 21.774 19.5207L25.7932 19.5392C26.0604 19.5404 26.2213 19.8358 26.0773 20.061C26.015 20.1584 25.9073 20.2174 25.7916 20.2174H23.9842C23.0549 20.2174 22.758 20.8794 23.6858 20.8277C24.0359 20.8082 24.4612 20.787 24.9827 20.7991C25.2731 20.8058 25.4191 21.0951 25.2432 21.3264C25.1548 21.4426 25.0246 21.5139 24.8785 21.5154L23.8202 21.5263C23.439 21.5303 23.2006 22.0172 23.5768 22.0789C23.7006 22.0993 23.8473 22.098 24.039 22.106C24.2362 22.1143 24.3271 22.3422 24.2001 22.4934C24.1072 22.604 24.1273 22.7703 24.2437 22.856C25.7271 23.9483 26.9579 24.855 29.3988 25.2776C31.724 25.6763 34.1489 25.2333 36.0202 24.3143C44.1254 20.3171 43.904 8.80151 35.9538 4.99252C33.097 3.63058 29.3102 3.50878 26.3538 5.05895C24.927 5.80002 24.5829 6.33116 24.0524 6.65238C24.0514 6.65299 24.0501 6.65283 24.0493 6.652Z" fill="#F8B02B"/>
<path fill-rule="evenodd" clip-rule="evenodd" d="M7.02051 17.3502L8.01705 17.3612L8.59283 13.9066C8.76999 14.3495 8.82535 16.6858 8.85857 17.3502L9.99905 17.3834L11.4053 13.9509L10.8849 17.3612L11.8371 17.3723L12.7119 12.6221C10.7631 12.6 10.9734 12.4339 10.6634 13.1979L9.74438 15.3239L9.56722 12.6664L7.8731 12.6111L7.02051 17.3502Z" fill="white"/>
<path fill-rule="evenodd" clip-rule="evenodd" d="M37.8693 16.4754C37.0389 15.6228 37.7475 14.2055 38.5226 14.3937C39.2866 14.5819 39.1427 16.4532 37.8693 16.4754ZM39.2202 13.9619C38.4451 13.0318 36.8838 13.4525 36.4077 15.0248C35.7766 17.1176 37.8361 18.0698 38.5226 17.0511C38.8548 17.4498 38.6001 17.3833 39.652 17.3833L40.4603 12.6221H39.5191L39.2091 13.9729L39.2202 13.9619Z" fill="white"/>
<path fill-rule="evenodd" clip-rule="evenodd" d="M31.6126 16.4862C31.4575 15.7444 32.144 15.4565 32.7973 15.5893C32.8305 16.3423 32.2991 16.752 31.6126 16.4862ZM31.2582 13.5741L31.0257 14.4489C32.133 14.1831 32.9413 14.0392 32.9745 14.9028C31.7565 14.8475 30.5607 15.0357 30.4167 16.2205C30.2285 17.7042 31.7122 17.5824 32.6423 17.0509C32.6866 17.6156 32.5427 17.2502 32.8527 17.372C32.897 17.3942 33.351 17.3831 33.4285 17.3831C33.7607 17.1727 33.7607 16.3534 33.8382 15.9437C34.126 14.5596 34.6797 12.8765 31.2472 13.5741H31.2582Z" fill="white"/>
<path fill-rule="evenodd" clip-rule="evenodd" d="M14.738 15.5556C14.7601 15.932 14.6937 16.2199 14.4501 16.4081C14.284 16.5299 13.7858 16.6739 13.5864 16.4857C12.9664 15.921 14.129 15.5445 14.7269 15.5556H14.738ZM12.9774 14.4261C13.819 14.2268 14.9041 13.9943 14.9262 14.858C13.6529 15.0573 12.4792 14.8801 12.3574 16.231C12.2245 17.5929 13.83 17.7037 14.5941 17.0282C14.7159 17.5708 14.5719 17.1611 14.7491 17.3825L15.5352 17.3715C15.6349 16.7403 16.1442 14.6365 15.9671 14.1272C15.657 13.2414 14.0183 13.3521 13.1989 13.6068L12.9885 14.4372L12.9774 14.4261Z" fill="white"/>
<path fill-rule="evenodd" clip-rule="evenodd" d="M22.1565 14.9804C22.3004 14.4157 22.544 14.1831 23.1973 14.2717C23.4298 14.6039 23.4298 14.5042 23.4741 14.9804H22.1565ZM20.9828 15.0357L20.9385 15.6336C21.0049 16.6413 21.4146 17.0952 22.3336 17.3167C22.7101 17.4053 23.4298 17.4385 23.7731 17.3167C24.2049 17.1727 24.1717 16.7852 24.2049 16.3202C23.3745 16.597 22.09 16.8295 21.9904 15.7112L24.1053 15.689C24.7364 15.5894 24.4817 14.3603 24.2271 13.9727C23.7509 13.2641 21.6693 12.7658 20.9717 15.0357H20.9828Z" fill="white"/>
<path fill-rule="evenodd" clip-rule="evenodd" d="M27.4274 13.5629C27.2281 14.1276 27.0952 14.338 26.9734 15.0356V15.6446L27.1617 16.32C27.5492 16.8404 27.815 17.2612 28.6897 17.3719C29.952 17.538 30.1292 17.2723 30.2399 16.1982C28.9997 16.7851 27.8482 16.2314 28.1914 14.7588C28.5126 13.3747 29.3762 13.2861 30.6939 13.6847L30.86 12.666C30.0849 12.511 29.5866 12.3449 28.8004 12.5553C27.8482 12.8211 27.9368 13.0868 27.4274 13.574V13.5629Z" fill="white"/>
<path fill-rule="evenodd" clip-rule="evenodd" d="M19.0454 13.4855C17.9603 13.3969 16.6427 13.253 16.3437 14.2274C15.7901 16.0211 17.761 15.2903 17.6392 16.4087C17.0745 16.7187 16.7202 16.5748 16.0005 16.4308L15.8565 17.2281C18.4143 18.1692 19.5548 15.9879 18.4918 15.2682C17.9271 14.8917 17.5174 15.2128 17.4399 14.4156C18.071 14.1277 18.1707 14.2938 18.9015 14.2938L19.0565 13.4855H19.0454Z" fill="white"/>
<path fill-rule="evenodd" clip-rule="evenodd" d="M20.2859 15.1685L20.3634 14.9028C20.4298 14.0059 20.4077 14.4156 21.0942 14.2495L21.1938 13.5962C20.9835 13.419 20.9945 13.4855 20.6291 13.4855L20.6513 13.2419L20.7399 12.6218C19.4554 12.5997 19.8098 12.2896 19.3558 14.8142C19.0679 16.3976 18.4921 17.5824 20.2637 17.372C20.8617 17.3055 20.7952 17.1173 20.8617 16.5637C19.7212 16.6966 20.1419 16.0986 20.2859 15.1685Z" fill="white"/>
<path fill-rule="evenodd" clip-rule="evenodd" d="M25.4894 16.9291L25.578 16.3201L25.6887 15.6557L25.888 14.9913C26.1316 14.327 26.6853 14.6038 26.8624 14.3602L27.1946 13.4633C26.5413 13.4412 26.3642 13.6848 26.0984 14.0169L26.0431 13.8176C26.0431 13.8066 26.032 13.7733 26.032 13.7512C26.032 13.7291 26.0098 13.6405 26.0098 13.6183L25.0244 13.4855L24.3711 17.3498L25.4119 17.3941L25.5005 16.9291H25.4894Z" fill="white"/>
<path fill-rule="evenodd" clip-rule="evenodd" d="M33.9824 17.3715H35.0122C35.2558 15.8767 35.2004 14.7362 36.1084 14.4373L36.5624 14.2601L36.6952 13.474C36.208 13.485 35.898 13.7065 35.7319 13.9612L35.588 13.5515C35.5769 13.5293 35.5769 13.4961 35.5658 13.474L34.6468 13.4629L33.9824 17.3715Z" fill="white"/>
<path fill-rule="evenodd" clip-rule="evenodd" d="M37.8694 16.4747C39.1538 16.4525 39.2977 14.5812 38.5227 14.393C37.7365 14.2048 37.0389 15.6221 37.8694 16.4747Z" fill="#F8B02B"/>
<path fill-rule="evenodd" clip-rule="evenodd" d="M14.7383 15.5559C14.1404 15.5448 12.9777 15.9213 13.5978 16.486C13.7971 16.6632 14.2954 16.5192 14.4615 16.4085C14.7051 16.2313 14.7604 15.9324 14.7494 15.5559H14.7383Z" fill="#E41D2C"/>
<path fill-rule="evenodd" clip-rule="evenodd" d="M25.5791 16.3089L27.1625 16.32L26.9743 15.6445H25.6898L25.5791 16.3089Z" fill="#E41D2C"/>
<path fill-rule="evenodd" clip-rule="evenodd" d="M31.6133 16.4855C32.3109 16.7401 32.8313 16.3415 32.7981 15.5886C32.1337 15.4668 31.4583 15.7547 31.6133 16.4855Z" fill="#F8B02B"/>
<path fill-rule="evenodd" clip-rule="evenodd" d="M25.6895 15.6439H26.9739V15.0349L25.8888 14.9795L25.6895 15.6439Z" fill="#F8B02B"/>
<path fill-rule="evenodd" clip-rule="evenodd" d="M22.1572 14.9799H23.4749C23.4417 14.5148 23.4306 14.6034 23.1981 14.2712C22.5448 14.1826 22.3012 14.4152 22.1572 14.9799Z" fill="#E41D2C"/>
<path fill-rule="evenodd" clip-rule="evenodd" d="M20.2861 15.1684C20.4744 15.6224 20.1865 15.4563 20.5519 15.6224L20.9505 15.6335L20.9948 15.0355L20.5629 15.0245C20.3415 14.9802 20.4633 15.0577 20.3747 14.8916L20.2972 15.1573L20.2861 15.1684Z" fill="#F8B02B"/>
</g>
<defs>
<linearGradient id="paint0_linear_2006_764" x1="24" y1="-0.384464" x2="24" y2="29.8241" gradientUnits="userSpaceOnUse">
<stop stop-color="#1D4C80"/>
<stop offset="1" stop-color="#173A63"/>
</linearGradient>
<clipPath id="clip0_2006_764">
<rect width="48" height="30" rx="4" fill="white"/>
</clipPath>
</defs>
</svg>
