<svg width="24" height="24" viewBox="0 0 24 24" fill="none" xmlns="http://www.w3.org/2000/svg">
<path fill-rule="evenodd" clip-rule="evenodd" d="M12.1946 20.95C10.4261 20.95 9.60457 20.69 8.18039 19.6497C7.27399 20.8201 4.4209 21.7308 4.29526 20.1698C4.29526 19.0003 4.03387 18.0149 3.7456 16.9304C3.39254 15.6016 3 14.1234 3 11.9753C3 6.85317 7.1852 3 12.1479 3C17.1094 3 21 7.04052 21 12.0252C21 17.0092 16.9853 20.9501 12.1943 20.9501L12.1946 20.95ZM12.2662 7.42874C9.85166 7.3018 7.96753 8.9836 7.55203 11.6162C7.20763 13.7964 7.81788 16.4529 8.3396 16.5866C8.58591 16.6495 9.21623 16.1377 9.60431 15.7475C10.2437 16.1634 10.9767 16.4859 11.7918 16.5283C14.2708 16.6587 16.4672 14.7112 16.5973 12.2225C16.7276 9.73367 14.7453 7.55925 12.2663 7.42874H12.2662Z" fill="#0066D9"/>
</svg>
