<svg width="32" height="32" viewBox="0 0 32 32" fill="none" xmlns="http://www.w3.org/2000/svg">
<path fill-rule="evenodd" clip-rule="evenodd" d="M4.48207 5.34922C7.05167 2.77945 8.72494 2.09809 10.5104 3.12461C11.024 3.41998 11.506 3.83359 12.1608 4.49863L14.1696 6.58164C15.2786 7.79204 15.5308 8.9534 15.1696 10.3131L15.1198 10.4928L15.0641 10.6715L14.7955 11.4596C14.2209 13.2261 14.461 14.2232 16.5055 16.2672C18.6318 18.3929 19.6251 18.5669 21.528 17.902L21.8668 17.7838L22.277 17.651L22.4567 17.6012C23.9019 17.2156 25.1228 17.5231 26.4176 18.817L28.0358 20.3805L28.5123 20.8482C29.0405 21.3868 29.3893 21.8142 29.6471 22.2652C30.6675 24.0503 29.9854 25.7229 27.3414 28.357L27.0905 28.6119C26.6957 28.9924 26.3266 29.2648 25.7848 29.5221C24.8753 29.9539 23.8009 30.1166 22.5524 29.943C19.4758 29.5151 15.5739 27.0873 10.6295 22.1441C10.227 21.7418 9.84117 21.3475 9.4723 20.9605L8.75648 20.1969C2.0502 12.9107 1.45856 8.43472 4.20668 5.62754L4.38539 5.45078L4.48207 5.34922ZM9.51332 4.85898C8.89801 4.50522 8.23397 4.65436 7.00453 5.7125L6.61781 6.0582C6.55053 6.12031 6.4812 6.18467 6.41078 6.25156L5.9684 6.6832L5.92836 6.73301L5.62758 7.03476C4.90191 7.77608 4.5579 8.68101 4.85414 10.2369C5.34029 12.7903 7.56629 16.2539 12.0436 20.7301C16.7087 25.3939 20.2629 27.6058 22.8278 27.9625C24.3227 28.1704 25.0853 27.8079 25.8629 27.0113L26.4567 26.4127C26.7347 26.1218 26.9719 25.8577 27.1725 25.6168L27.4469 25.2721C28.1465 24.3403 28.21 23.7808 27.9108 23.2574C27.797 23.0583 27.6312 22.8396 27.3903 22.5729L27.0631 22.2281L26.8698 22.0348L24.8287 20.0631C24.1465 19.434 23.6801 19.345 22.9723 19.5338L22.7672 19.5924L21.9215 19.8795C19.4682 20.6717 17.6978 20.2869 15.0914 17.6812C12.3923 14.9826 12.0757 13.1803 12.9801 10.5855L13.0387 10.4186L13.1989 9.93516L13.278 9.62754C13.4178 8.95693 13.2576 8.48916 12.5368 7.76816C12.5071 7.73855 12.4741 7.70506 12.4381 7.66855L10.5416 5.70762C10.1074 5.27949 9.79146 5.01893 9.51332 4.85898Z" fill="#0066D9"/>
</svg>
