<svg width="48" height="30" viewBox="0 0 48 30" fill="none" xmlns="http://www.w3.org/2000/svg">
<g clip-path="url(#clip0_2006_789)">
<path d="M48 28.3528C48 29.3367 47.2033 30.1334 46.2194 30.1334H1.78025C0.796989 30.1334 0 29.3367 0 28.3528V1.64674C0 0.663481 0.796989 -0.133789 1.78025 -0.133789H46.2195C47.2034 -0.133789 48.0001 0.663481 48.0001 1.64674L48 28.3528Z" fill="#21246E"/>
<path d="M18.2437 8.63015L12.903 21.3744H9.41707L6.79074 11.2049C6.62902 10.5777 6.49081 10.3495 6.00602 10.0832C5.21194 9.65379 3.90561 9.25099 2.7522 9.00016L2.83287 8.63024H8.44122C9.1565 8.63024 9.79955 9.10735 9.96127 9.92983L11.35 17.306L14.78 8.63024L18.2437 8.63015ZM31.8981 17.2115C31.9135 13.8498 27.2465 13.6668 27.28 12.1629C27.2891 11.7039 27.7242 11.2181 28.6771 11.0954C29.1503 11.0325 30.4525 10.9864 31.9284 11.6639L32.5069 8.96268C31.7128 8.67447 30.6921 8.39844 29.4234 8.39844C26.1651 8.39844 23.8712 10.1316 23.8519 12.6113C23.8305 14.4452 25.4884 15.4685 26.739 16.0792C28.0231 16.7041 28.4524 17.1031 28.4479 17.6635C28.4395 18.5189 27.4234 18.8927 26.4756 18.9095C24.8177 18.9354 23.8561 18.4614 23.0882 18.1038L22.4913 20.8979C23.2605 21.2511 24.6847 21.5578 26.1586 21.5758C29.6216 21.5757 31.8871 19.8611 31.8981 17.2115ZM40.5027 21.3743H43.5525L40.8913 8.63006H38.0758C37.4432 8.63006 36.9098 8.99904 36.6722 9.56422L31.7282 21.3742H35.1886L35.8755 19.4709H40.1055L40.5027 21.3743ZM36.8239 16.859L38.5599 12.0738L39.5587 16.859H36.8239ZM22.9551 8.63015L20.2274 21.3743H16.93L19.6584 8.63006H22.9551V8.63015Z" fill="#0066D9"/>
</g>
<defs>
<clipPath id="clip0_2006_789">
<rect width="48" height="30" rx="4" fill="white"/>
</clipPath>
</defs>
</svg>
