<svg width="24" height="24" viewBox="0 0 24 24" fill="none" xmlns="http://www.w3.org/2000/svg">
<path d="M21 7.095C20.9899 6.70671 20.9598 6.31921 20.91 5.934C20.8428 5.59661 20.7308 5.26972 20.577 4.962C20.4161 4.62819 20.2001 4.32392 19.938 4.062C19.6735 3.80298 19.3697 3.58733 19.038 3.423C18.7299 3.2722 18.403 3.16324 18.066 3.099C17.6845 3.04185 17.2997 3.00878 16.914 3H7.095C6.70671 3.01011 6.31921 3.04015 5.934 3.09C5.59661 3.1572 5.26972 3.26919 4.962 3.423C4.62819 3.58386 4.32392 3.7999 4.062 4.062C3.80298 4.32652 3.58733 4.63025 3.423 4.962C3.2722 5.27013 3.16324 5.59702 3.099 5.934C3.04185 6.31554 3.00878 6.7003 3 7.086C3 7.257 3 7.5 3 7.572V16.428C3 16.527 3 16.743 3 16.905C3.01011 17.2933 3.04015 17.6808 3.09 18.066C3.1572 18.4034 3.26919 18.7303 3.423 19.038C3.58386 19.3718 3.7999 19.6761 4.062 19.938C4.32652 20.197 4.63025 20.4127 4.962 20.577C5.27013 20.7278 5.59702 20.8368 5.934 20.901C6.31554 20.9581 6.7003 20.9912 7.086 21H16.905C17.2933 20.9899 17.6808 20.9598 18.066 20.91C18.4034 20.8428 18.7303 20.7308 19.038 20.577C19.3718 20.4161 19.6761 20.2001 19.938 19.938C20.197 19.6735 20.4127 19.3697 20.577 19.038C20.7278 18.7299 20.8368 18.403 20.901 18.066C20.9581 17.6845 20.9912 17.2997 21 16.914C21 16.743 21 16.527 21 16.428V7.572C21 7.5 21 7.257 21 7.095ZM12.207 18.3C11.1262 18.2947 10.0642 18.016 9.12 17.49L5.7 18.39L6.6 15.042C6.0196 14.0668 5.70899 12.9548 5.7 11.82C5.70358 10.5446 6.08448 9.29884 6.79472 8.23954C7.50497 7.18023 8.51279 6.35478 9.69126 5.86714C10.8697 5.37951 12.1661 5.2515 13.4172 5.49924C14.6683 5.74699 15.8181 6.3594 16.7218 7.25934C17.6255 8.15929 18.2427 9.30653 18.4956 10.5566C18.7486 11.8066 18.6259 13.1035 18.1432 14.284C17.6605 15.4645 16.8392 16.4758 15.7829 17.1904C14.7265 17.905 13.4823 18.2911 12.207 18.3ZM12.207 6.483C11.2528 6.49392 10.3186 6.75748 9.4994 7.24686C8.68021 7.73624 8.00533 8.43396 7.54347 9.26897C7.0816 10.104 6.84925 11.0465 6.87008 12.0005C6.8909 12.9545 7.16415 13.8859 7.662 14.7L7.788 14.907L7.248 16.878L9.3 16.32L9.498 16.437C10.3166 16.9192 11.248 17.1769 12.198 17.184C13.6302 17.184 15.0037 16.6151 16.0164 15.6024C17.0291 14.5897 17.598 13.2162 17.598 11.784C17.598 10.3518 17.0291 8.97832 16.0164 7.96562C15.0037 6.95293 13.6302 6.384 12.198 6.384L12.207 6.483ZM15.357 14.151C15.2391 14.3476 15.0813 14.5173 14.8937 14.6491C14.7061 14.7809 14.4929 14.8718 14.268 14.916C13.9319 14.9774 13.5858 14.9558 13.26 14.853C12.9534 14.7571 12.6529 14.6429 12.36 14.511C11.2474 13.9527 10.2985 13.1155 9.606 12.081C9.22969 11.6017 9.00137 11.0231 8.949 10.416C8.94364 10.1638 8.99135 9.91331 9.08903 9.68074C9.1867 9.44817 9.33217 9.23873 9.516 9.066C9.57015 9.00461 9.63657 8.95526 9.71099 8.92116C9.7854 8.88705 9.86615 8.86894 9.948 8.868H10.2C10.299 8.868 10.434 8.868 10.56 9.147C10.686 9.426 11.019 10.263 11.064 10.344C11.0861 10.3872 11.0976 10.435 11.0976 10.4835C11.0976 10.532 11.0861 10.5798 11.064 10.623C11.0242 10.7208 10.9696 10.8119 10.902 10.893C10.821 10.992 10.731 11.109 10.659 11.181C10.587 11.253 10.497 11.343 10.587 11.505C10.8319 11.9183 11.135 12.2941 11.487 12.621C11.8703 12.9597 12.3086 13.2306 12.783 13.422C12.945 13.503 13.044 13.494 13.134 13.422C13.224 13.35 13.539 12.954 13.647 12.792C13.755 12.63 13.863 12.657 14.007 12.711C14.151 12.765 14.952 13.152 15.114 13.233C15.276 13.314 15.375 13.35 15.42 13.422C15.459 13.6575 15.4373 13.8992 15.357 14.124V14.151Z" fill="#4CAF50"/>
</svg>
